<svg width="20" height="20" viewBox="0 0 20 20" fill="none" xmlns="http://www.w3.org/2000/svg">
<path id="Vector" d="M17.5261 15.9101C17.1847 15.6141 16.7523 15.5459 16.3653 15.7053L15.6142 14.9542C17.0482 13.3609 17.9359 11.2669 17.9359 8.96794C17.8903 4.00598 13.8842 0 8.94518 0C4.00598 0 0 4.00606 0 8.94518C0 13.8843 4.00594 17.8904 8.94518 17.8904C11.244 17.8904 13.3609 17.0254 14.9314 15.5687L15.6825 16.3198C15.5231 16.7523 15.6142 17.253 15.9785 17.5717L18.1181 19.4836C18.3457 19.6884 18.5961 19.7795 18.8692 19.7795C19.1878 19.7795 19.4838 19.643 19.7113 19.3926C20.1209 18.9146 20.0982 18.209 19.6203 17.7765L17.5261 15.9101ZM8.9451 15.6141C5.28053 15.6141 2.27605 12.6325 2.27605 8.94509C2.27605 5.28053 5.28045 2.27604 8.9451 2.27604C12.6324 2.27604 15.6141 5.28061 15.6141 8.94509C15.6143 12.6325 12.6325 15.6141 8.9451 15.6141Z" fill="black" fill-opacity="0.8"/>
</svg>
